<?xml version="1.0" encoding="utf-8"?>
<!-- Generator: Adobe Illustrator 24.0.1, SVG Export Plug-In . SVG Version: 6.00 Build 0)  -->
<svg version="1.1" xmlns="http://www.w3.org/2000/svg" xmlns:xlink="http://www.w3.org/1999/xlink" x="0px" y="0px"
	 viewBox="0 0 1080 1080" style="enable-background:new 0 0 1080 1080;" xml:space="preserve">
<style type="text/css">
	.st0{display:none;}
	.st1{display:inline;fill:none;stroke:#000000;stroke-miterlimit:10;}
	.st2{display:inline;stroke:#FFFFFF;stroke-width:6;stroke-linecap:round;stroke-linejoin:round;stroke-miterlimit:10;}
	.st3{fill:#EBE8E9;}
</style>
<g id="Camada_5">
</g>
<g id="Camada_2" class="st0">
	<polyline class="st1" points="572.3,591.1 615.5,591.1 634.4,557.5 654,521.5 613.6,521.5 572.3,591.1 552.6,557.3 572.6,520.9 	
		"/>
	<polyline class="st1" points="654,521.5 593.6,414.6 551.7,414.6 	"/>
	<polyline class="st1" points="428,628.4 510.4,628.4 489.5,592.6 510.4,557.6 552.6,557.3 	"/>
	<polyline class="st1" points="510.4,557.6 551.7,628.4 531,663 510.4,628.4 	"/>
	<polyline class="st1" points="551.7,628.4 674.7,627.1 551.7,414.6 428,628.4 407.7,593.7 468.1,486.6 490.1,520.9 572.6,520.9 
		551.3,485.3 468.1,486.6 	"/>
	<polyline class="st1" points="531,663 654,663 674.7,627.1 	"/>
</g>
<g id="Camada_3" class="st0">
	<polygon class="st2" points="654,521.5 634.4,557.5 634.4,557.5 615.5,591.1 572.3,591.1 613.6,521.5 613.6,521.5 	"/>
	<polygon class="st2" points="654,521.5 613.6,521.5 551.7,414.6 593.6,414.6 	"/>
	<polygon class="st2" points="572.6,520.9 552.6,557.3 510.4,557.6 489.5,592.6 510.4,628.4 428,628.4 490.2,520.9 	"/>
	<polygon class="st2" points="551.7,628.4 531,663 510.4,628.4 489.5,592.6 510.4,557.6 	"/>
	<polygon class="st2" points="613.6,521.5 613.6,521.5 572.3,591.1 552.6,557.3 572.6,520.9 551.7,486.6 510.4,486.6 551.7,414.6 	
		"/>
	<polygon class="st2" points="490.2,520.9 428,628.4 407.7,593.7 468.1,486.6 490.1,520.9 	"/>
	<polygon class="st2" points="572.6,520.9 490.1,520.9 468.1,486.6 551.7,486.6 	"/>
	<polygon class="st2" points="674.7,627.1 551.7,628.4 510.4,557.6 552.6,557.3 572.3,591.1 615.5,591.1 634.4,557.5 	"/>
	<polygon class="st2" points="674.7,627.1 654,663 531,663 551.7,628.4 	"/>
</g>
<g id="Camada_4">
	<g>
		<g>
			<path class="st3" d="M705.9,508.3l-83.6,140.9h80l39.9-70.8c0-0.1,0.1-0.2,0.1-0.3l38.1-69.8H705.9z"/>
			<polygon class="st3" points="576.7,271.6 594.9,303 706,495 780.3,495 654,271.6 			"/>
			<path class="st3" d="M421.6,662.5c-1.2-2.1-1.2-4.7,0-6.8l46.3-77.6c0.2-0.3,0.4-0.5,0.6-0.7c0.2-0.2,0.3-0.4,0.5-0.6
				c0,0,0,0,0,0c0.1-0.1,0.2-0.1,0.3-0.2c0.1-0.1,0.3-0.2,0.5-0.3c0.2-0.1,0.3-0.3,0.5-0.4c0,0,0,0,0,0c0.2-0.1,0.3-0.1,0.5-0.2
				c0.2-0.1,0.3-0.1,0.5-0.2c0.2-0.1,0.4-0.2,0.5-0.2c0,0,0,0,0,0c0.2-0.1,0.4-0.1,0.7-0.1c0.3-0.1,0.7-0.1,1-0.1l89.6-0.7
				l37.1-67.4H432.8L302.7,731.8H462L421.6,662.5z"/>
			<polygon class="st3" points="473.5,594.7 435,659.2 479.3,735.1 519.4,802.1 525.7,791.5 557.4,738.4 			"/>
			<path class="st3" d="M570.8,420.9l46.3,75.9c0.3,0.5,0.5,1.1,0.7,1.6c0.1,0.2,0,0.4,0.1,0.5c0.1,0.4,0.2,0.8,0.2,1.2
				c0,0.2-0.1,0.5-0.1,0.7c0,0.3,0,0.7-0.1,1c-0.1,0.3-0.2,0.5-0.3,0.7c-0.1,0.3-0.2,0.6-0.3,0.9l0,0c0,0,0,0,0,0c0,0,0,0,0,0
				l-42.5,77.3l33.3,57.2l2.7,4.7l83.7-141.1L565.2,278.3l-80,139.5h79.9C567.5,417.7,569.6,418.9,570.8,420.9z"/>
			<polygon class="st3" points="421.1,500.7 380.5,437.2 254,661.5 291.2,725.2 			"/>
			<polygon class="st3" points="432.3,493.6 599.6,493.6 561.4,431 473.7,431 392.3,431 			"/>
			<path class="st3" d="M826,729l-77.7-134.3l-36.2,64.4c-1.2,2.1-3.4,3.4-5.8,3.4h-95.6c-2.4,0-4.5-1.3-5.7-3.3l-41.7-71.6
				l-78.1,0.6l83.8,143.5L826,729z"/>
			<polygon class="st3" points="825.9,742.3 568.9,745 531.1,808.4 788.5,807.2 			"/>
		</g>
	</g>
</g>
</svg>
